<?xml version="1.0" encoding="UTF-8" standalone="no"?>
<!DOCTYPE svg PUBLIC "-//W3C//DTD SVG 1.1//EN"
 "http://www.w3.org/Graphics/SVG/1.1/DTD/svg11.dtd">
<!-- Generated by graphviz version 2.38.0 (20140413.2041)
 -->
<!-- Title: controllers_diagram Pages: 1 -->
<svg width="440pt" height="470pt"
 viewBox="0.00 0.00 439.50 470.00" xmlns="http://www.w3.org/2000/svg" xmlns:xlink="http://www.w3.org/1999/xlink">
<g id="graph0" class="graph" transform="scale(1 1) rotate(0) translate(132 258)">
<title>controllers_diagram</title>
<polygon fill="none" stroke="none" points="-132,212 -132,-258 307.5,-258 307.5,212 -132,212"/>
<!-- _diagram_info -->
<g id="node1" class="node"><title>_diagram_info</title>
<text text-anchor="start" x="88" y="16.4" font-family="Times,serif" font-size="13.00">Controllers diagram</text>
<text text-anchor="start" x="88" y="30.4" font-family="Times,serif" font-size="13.00">Date: Feb 08 2017 &#45; 23:07</text>
<text text-anchor="start" x="88" y="44.4" font-family="Times,serif" font-size="13.00">Migration version: 20170208173534</text>
<text text-anchor="start" x="88" y="58.4" font-family="Times,serif" font-size="13.00">Generated by RailRoady 1.4.2</text>
<text text-anchor="start" x="88" y="72.4" font-family="Times,serif" font-size="13.00">http://railroady.prestonlee.com</text>
</g>
<!-- ApplicationController -->
<g id="node2" class="node"><title>ApplicationController</title>
<path fill="none" stroke="black" d="M92,-32.5C92,-32.5 262,-32.5 262,-32.5 268,-32.5 274,-38.5 274,-44.5 274,-44.5 274,-113.5 274,-113.5 274,-119.5 268,-125.5 262,-125.5 262,-125.5 92,-125.5 92,-125.5 86,-125.5 80,-119.5 80,-113.5 80,-113.5 80,-44.5 80,-44.5 80,-38.5 86,-32.5 92,-32.5"/>
<text text-anchor="middle" x="177" y="-110.3" font-family="Times,serif" font-size="14.00">ApplicationController</text>
<polyline fill="none" stroke="black" points="80,-102.5 274,-102.5 "/>
<polyline fill="none" stroke="black" points="80,-78.5 274,-78.5 "/>
<text text-anchor="start" x="88" y="-63.3" font-family="Times,serif" font-size="14.00">configure_permitted_parameters</text>
<polyline fill="none" stroke="black" points="80,-55.5 274,-55.5 "/>
<text text-anchor="start" x="88" y="-40.3" font-family="Times,serif" font-size="14.00">_layout</text>
</g>
<!-- ProductsController -->
<g id="node3" class="node"><title>ProductsController</title>
<path fill="none" stroke="black" d="M-51.5,143C-51.5,143 43.5,143 43.5,143 49.5,143 55.5,137 55.5,131 55.5,131 55.5,-103 55.5,-103 55.5,-109 49.5,-115 43.5,-115 43.5,-115 -51.5,-115 -51.5,-115 -57.5,-115 -63.5,-109 -63.5,-103 -63.5,-103 -63.5,131 -63.5,131 -63.5,137 -57.5,143 -51.5,143"/>
<text text-anchor="middle" x="-4" y="-99.8" font-family="Times,serif" font-size="14.00">ProductsController</text>
<polyline fill="none" stroke="black" points="-63.5,-92 55.5,-92 "/>
<text text-anchor="start" x="-55.5" y="-76.8" font-family="Times,serif" font-size="14.00">back</text>
<text text-anchor="start" x="-55.5" y="-61.8" font-family="Times,serif" font-size="14.00">create</text>
<text text-anchor="start" x="-55.5" y="-46.8" font-family="Times,serif" font-size="14.00">destroy</text>
<text text-anchor="start" x="-55.5" y="-31.8" font-family="Times,serif" font-size="14.00">edit</text>
<text text-anchor="start" x="-55.5" y="-16.8" font-family="Times,serif" font-size="14.00">index</text>
<text text-anchor="start" x="-55.5" y="-1.8" font-family="Times,serif" font-size="14.00">my_products</text>
<text text-anchor="start" x="-55.5" y="13.2" font-family="Times,serif" font-size="14.00">new</text>
<text text-anchor="start" x="-55.5" y="28.2" font-family="Times,serif" font-size="14.00">report</text>
<text text-anchor="start" x="-55.5" y="43.2" font-family="Times,serif" font-size="14.00">show</text>
<text text-anchor="start" x="-55.5" y="58.2" font-family="Times,serif" font-size="14.00">update</text>
<polyline fill="none" stroke="black" points="-63.5,66 55.5,66 "/>
<polyline fill="none" stroke="black" points="-63.5,90 55.5,90 "/>
<text text-anchor="start" x="-55.5" y="105.2" font-family="Times,serif" font-size="14.00">_layout</text>
<text text-anchor="start" x="-55.5" y="120.2" font-family="Times,serif" font-size="14.00">product_params</text>
<text text-anchor="start" x="-55.5" y="135.2" font-family="Times,serif" font-size="14.00">set_product</text>
</g>
<!-- OmniauthCallbacksController -->
<g id="node4" class="node"><title>OmniauthCallbacksController</title>
<path fill="none" stroke="black" d="M-116,-145C-116,-145 40,-145 40,-145 46,-145 52,-151 52,-157 52,-157 52,-241 52,-241 52,-247 46,-253 40,-253 40,-253 -116,-253 -116,-253 -122,-253 -128,-247 -128,-241 -128,-241 -128,-157 -128,-157 -128,-151 -122,-145 -116,-145"/>
<text text-anchor="middle" x="-38" y="-237.8" font-family="Times,serif" font-size="14.00">OmniauthCallbacksController</text>
<polyline fill="none" stroke="black" points="-128,-230 52,-230 "/>
<text text-anchor="start" x="-120" y="-214.8" font-family="Times,serif" font-size="14.00">facebook</text>
<text text-anchor="start" x="-120" y="-199.8" font-family="Times,serif" font-size="14.00">google_oauth2</text>
<polyline fill="none" stroke="black" points="-128,-192 52,-192 "/>
<polyline fill="none" stroke="black" points="-128,-168 52,-168 "/>
<text text-anchor="start" x="-120" y="-152.8" font-family="Times,serif" font-size="14.00">_layout</text>
</g>
<!-- RegistrationsController -->
<g id="node5" class="node"><title>RegistrationsController</title>
<path fill="none" stroke="black" d="M172.5,-160.5C172.5,-160.5 291.5,-160.5 291.5,-160.5 297.5,-160.5 303.5,-166.5 303.5,-172.5 303.5,-172.5 303.5,-241.5 303.5,-241.5 303.5,-247.5 297.5,-253.5 291.5,-253.5 291.5,-253.5 172.5,-253.5 172.5,-253.5 166.5,-253.5 160.5,-247.5 160.5,-241.5 160.5,-241.5 160.5,-172.5 160.5,-172.5 160.5,-166.5 166.5,-160.5 172.5,-160.5"/>
<text text-anchor="middle" x="232" y="-238.3" font-family="Times,serif" font-size="14.00">RegistrationsController</text>
<polyline fill="none" stroke="black" points="160.5,-230.5 303.5,-230.5 "/>
<polyline fill="none" stroke="black" points="160.5,-206.5 303.5,-206.5 "/>
<text text-anchor="start" x="168.5" y="-191.3" font-family="Times,serif" font-size="14.00">update_resource</text>
<polyline fill="none" stroke="black" points="160.5,-183.5 303.5,-183.5 "/>
<text text-anchor="start" x="168.5" y="-168.3" font-family="Times,serif" font-size="14.00">_layout</text>
</g>
<!-- HomeController -->
<g id="node6" class="node"><title>HomeController</title>
<path fill="none" stroke="black" d="M92,207.5C92,207.5 174,207.5 174,207.5 180,207.5 186,201.5 186,195.5 186,195.5 186,126.5 186,126.5 186,120.5 180,114.5 174,114.5 174,114.5 92,114.5 92,114.5 86,114.5 80,120.5 80,126.5 80,126.5 80,195.5 80,195.5 80,201.5 86,207.5 92,207.5"/>
<text text-anchor="middle" x="133" y="129.7" font-family="Times,serif" font-size="14.00">HomeController</text>
<polyline fill="none" stroke="black" points="80,137.5 186,137.5 "/>
<text text-anchor="start" x="88" y="152.7" font-family="Times,serif" font-size="14.00">index</text>
<polyline fill="none" stroke="black" points="80,160.5 186,160.5 "/>
<polyline fill="none" stroke="black" points="80,184.5 186,184.5 "/>
<text text-anchor="start" x="88" y="199.7" font-family="Times,serif" font-size="14.00">_layout</text>
</g>
</g>
</svg>
