<?xml version="1.0" encoding="UTF-8" standalone="no"?>
<!DOCTYPE svg PUBLIC "-//W3C//DTD SVG 1.1//EN"
 "http://www.w3.org/Graphics/SVG/1.1/DTD/svg11.dtd">
<!-- Generated by graphviz version 2.38.0 (20140413.2041)
 -->
<!-- Title: models_diagram Pages: 1 -->
<svg width="1319pt" height="708pt"
 viewBox="0.00 0.00 1319.00 708.00" xmlns="http://www.w3.org/2000/svg" xmlns:xlink="http://www.w3.org/1999/xlink">
<g id="graph0" class="graph" transform="scale(1 1) rotate(0) translate(4 704)">
<title>models_diagram</title>
<polygon fill="none" stroke="none" points="-4,4 -4,-704 1315,-704 1315,4 -4,4"/>
<!-- _diagram_info -->
<g id="node1" class="node"><title>_diagram_info</title>
<text text-anchor="start" x="8" y="-536.1" font-family="Times,serif" font-size="13.00">Models diagram</text>
<text text-anchor="start" x="8" y="-522.1" font-family="Times,serif" font-size="13.00">Date: Feb 08 2017 &#45; 23:07</text>
<text text-anchor="start" x="8" y="-508.1" font-family="Times,serif" font-size="13.00">Migration version: 20170208173534</text>
<text text-anchor="start" x="8" y="-494.1" font-family="Times,serif" font-size="13.00">Generated by RailRoady 1.4.2</text>
<text text-anchor="start" x="8" y="-480.1" font-family="Times,serif" font-size="13.00">http://railroady.prestonlee.com</text>
</g>
<!-- ApplicationRecord -->
<g id="node2" class="node"><title>ApplicationRecord</title>
<ellipse fill="none" stroke="black" cx="309" cy="-511.5" rx="77.1866" ry="18"/>
<text text-anchor="middle" x="309" y="-507.8" font-family="Times,serif" font-size="14.00">ApplicationRecord</text>
</g>
<!-- Product -->
<g id="node3" class="node"><title>Product</title>
<path fill="none" stroke="black" d="M189,-0.5C189,-0.5 409,-0.5 409,-0.5 415,-0.5 421,-6.5 421,-12.5 421,-12.5 421,-274.5 421,-274.5 421,-280.5 415,-286.5 409,-286.5 409,-286.5 189,-286.5 189,-286.5 183,-286.5 177,-280.5 177,-274.5 177,-274.5 177,-12.5 177,-12.5 177,-6.5 183,-0.5 189,-0.5"/>
<text text-anchor="middle" x="299" y="-271.3" font-family="Times,serif" font-size="14.00">Product</text>
<polyline fill="none" stroke="black" points="177,-263.5 421,-263.5 "/>
<text text-anchor="start" x="185" y="-248.3" font-family="Times,serif" font-size="14.00">id :integer</text>
<text text-anchor="start" x="185" y="-233.3" font-family="Times,serif" font-size="14.00">title :character varying</text>
<text text-anchor="start" x="185" y="-218.3" font-family="Times,serif" font-size="14.00">location :character varying</text>
<text text-anchor="start" x="185" y="-203.3" font-family="Times,serif" font-size="14.00">funding_goal :double precision</text>
<text text-anchor="start" x="185" y="-188.3" font-family="Times,serif" font-size="14.00">description :text</text>
<text text-anchor="start" x="185" y="-173.3" font-family="Times,serif" font-size="14.00">category_id :integer</text>
<text text-anchor="start" x="185" y="-158.3" font-family="Times,serif" font-size="14.00">facebook_url :character varying</text>
<text text-anchor="start" x="185" y="-143.3" font-family="Times,serif" font-size="14.00">website :character varying</text>
<text text-anchor="start" x="185" y="-128.3" font-family="Times,serif" font-size="14.00">active :boolean</text>
<text text-anchor="start" x="185" y="-113.3" font-family="Times,serif" font-size="14.00">created_at :timestamp without time zone</text>
<text text-anchor="start" x="185" y="-98.3" font-family="Times,serif" font-size="14.00">updated_at :timestamp without time zone</text>
<text text-anchor="start" x="185" y="-83.3" font-family="Times,serif" font-size="14.00">risks :character varying</text>
<text text-anchor="start" x="185" y="-68.3" font-family="Times,serif" font-size="14.00">future_plans :character varying</text>
<text text-anchor="start" x="185" y="-53.3" font-family="Times,serif" font-size="14.00">short_description :character varying</text>
<text text-anchor="start" x="185" y="-38.3" font-family="Times,serif" font-size="14.00">backers_total :integer</text>
<text text-anchor="start" x="185" y="-23.3" font-family="Times,serif" font-size="14.00">raised_amount :double precision</text>
<text text-anchor="start" x="185" y="-8.3" font-family="Times,serif" font-size="14.00">user_id :integer</text>
</g>
<!-- BackProduct -->
<g id="node4" class="node"><title>BackProduct</title>
<path fill="none" stroke="black" d="M451,-90.5C451,-90.5 671,-90.5 671,-90.5 677,-90.5 683,-96.5 683,-102.5 683,-102.5 683,-184.5 683,-184.5 683,-190.5 677,-196.5 671,-196.5 671,-196.5 451,-196.5 451,-196.5 445,-196.5 439,-190.5 439,-184.5 439,-184.5 439,-102.5 439,-102.5 439,-96.5 445,-90.5 451,-90.5"/>
<text text-anchor="middle" x="561" y="-181.3" font-family="Times,serif" font-size="14.00">BackProduct</text>
<polyline fill="none" stroke="black" points="439,-173.5 683,-173.5 "/>
<text text-anchor="start" x="447" y="-158.3" font-family="Times,serif" font-size="14.00">id :integer</text>
<text text-anchor="start" x="447" y="-143.3" font-family="Times,serif" font-size="14.00">product_id :integer</text>
<text text-anchor="start" x="447" y="-128.3" font-family="Times,serif" font-size="14.00">user_id :integer</text>
<text text-anchor="start" x="447" y="-113.3" font-family="Times,serif" font-size="14.00">created_at :timestamp without time zone</text>
<text text-anchor="start" x="447" y="-98.3" font-family="Times,serif" font-size="14.00">updated_at :timestamp without time zone</text>
</g>
<!-- AdminUser -->
<g id="node5" class="node"><title>AdminUser</title>
<path fill="none" stroke="black" d="M747.5,-398.5C747.5,-398.5 1036.5,-398.5 1036.5,-398.5 1042.5,-398.5 1048.5,-404.5 1048.5,-410.5 1048.5,-410.5 1048.5,-612.5 1048.5,-612.5 1048.5,-618.5 1042.5,-624.5 1036.5,-624.5 1036.5,-624.5 747.5,-624.5 747.5,-624.5 741.5,-624.5 735.5,-618.5 735.5,-612.5 735.5,-612.5 735.5,-410.5 735.5,-410.5 735.5,-404.5 741.5,-398.5 747.5,-398.5"/>
<text text-anchor="middle" x="892" y="-609.3" font-family="Times,serif" font-size="14.00">AdminUser</text>
<polyline fill="none" stroke="black" points="735.5,-601.5 1048.5,-601.5 "/>
<text text-anchor="start" x="743.5" y="-586.3" font-family="Times,serif" font-size="14.00">id :integer</text>
<text text-anchor="start" x="743.5" y="-571.3" font-family="Times,serif" font-size="14.00">email :character varying</text>
<text text-anchor="start" x="743.5" y="-556.3" font-family="Times,serif" font-size="14.00">encrypted_password :character varying</text>
<text text-anchor="start" x="743.5" y="-541.3" font-family="Times,serif" font-size="14.00">reset_password_token :character varying</text>
<text text-anchor="start" x="743.5" y="-526.3" font-family="Times,serif" font-size="14.00">reset_password_sent_at :timestamp without time zone</text>
<text text-anchor="start" x="743.5" y="-511.3" font-family="Times,serif" font-size="14.00">remember_created_at :timestamp without time zone</text>
<text text-anchor="start" x="743.5" y="-496.3" font-family="Times,serif" font-size="14.00">sign_in_count :integer</text>
<text text-anchor="start" x="743.5" y="-481.3" font-family="Times,serif" font-size="14.00">current_sign_in_at :timestamp without time zone</text>
<text text-anchor="start" x="743.5" y="-466.3" font-family="Times,serif" font-size="14.00">last_sign_in_at :timestamp without time zone</text>
<text text-anchor="start" x="743.5" y="-451.3" font-family="Times,serif" font-size="14.00">current_sign_in_ip :inet</text>
<text text-anchor="start" x="743.5" y="-436.3" font-family="Times,serif" font-size="14.00">last_sign_in_ip :inet</text>
<text text-anchor="start" x="743.5" y="-421.3" font-family="Times,serif" font-size="14.00">created_at :timestamp without time zone</text>
<text text-anchor="start" x="743.5" y="-406.3" font-family="Times,serif" font-size="14.00">updated_at :timestamp without time zone</text>
</g>
<!-- User -->
<g id="node6" class="node"><title>User</title>
<path fill="none" stroke="black" d="M416.5,-323.5C416.5,-323.5 705.5,-323.5 705.5,-323.5 711.5,-323.5 717.5,-329.5 717.5,-335.5 717.5,-335.5 717.5,-687.5 717.5,-687.5 717.5,-693.5 711.5,-699.5 705.5,-699.5 705.5,-699.5 416.5,-699.5 416.5,-699.5 410.5,-699.5 404.5,-693.5 404.5,-687.5 404.5,-687.5 404.5,-335.5 404.5,-335.5 404.5,-329.5 410.5,-323.5 416.5,-323.5"/>
<text text-anchor="middle" x="561" y="-684.3" font-family="Times,serif" font-size="14.00">User</text>
<polyline fill="none" stroke="black" points="404.5,-676.5 717.5,-676.5 "/>
<text text-anchor="start" x="412.5" y="-661.3" font-family="Times,serif" font-size="14.00">id :integer</text>
<text text-anchor="start" x="412.5" y="-646.3" font-family="Times,serif" font-size="14.00">email :character varying</text>
<text text-anchor="start" x="412.5" y="-631.3" font-family="Times,serif" font-size="14.00">encrypted_password :character varying</text>
<text text-anchor="start" x="412.5" y="-616.3" font-family="Times,serif" font-size="14.00">reset_password_token :character varying</text>
<text text-anchor="start" x="412.5" y="-601.3" font-family="Times,serif" font-size="14.00">reset_password_sent_at :timestamp without time zone</text>
<text text-anchor="start" x="412.5" y="-586.3" font-family="Times,serif" font-size="14.00">remember_created_at :timestamp without time zone</text>
<text text-anchor="start" x="412.5" y="-571.3" font-family="Times,serif" font-size="14.00">sign_in_count :integer</text>
<text text-anchor="start" x="412.5" y="-556.3" font-family="Times,serif" font-size="14.00">current_sign_in_at :timestamp without time zone</text>
<text text-anchor="start" x="412.5" y="-541.3" font-family="Times,serif" font-size="14.00">last_sign_in_at :timestamp without time zone</text>
<text text-anchor="start" x="412.5" y="-526.3" font-family="Times,serif" font-size="14.00">current_sign_in_ip :character varying</text>
<text text-anchor="start" x="412.5" y="-511.3" font-family="Times,serif" font-size="14.00">last_sign_in_ip :character varying</text>
<text text-anchor="start" x="412.5" y="-496.3" font-family="Times,serif" font-size="14.00">confirmation_token :character varying</text>
<text text-anchor="start" x="412.5" y="-481.3" font-family="Times,serif" font-size="14.00">confirmed_at :timestamp without time zone</text>
<text text-anchor="start" x="412.5" y="-466.3" font-family="Times,serif" font-size="14.00">confirmation_sent_at :timestamp without time zone</text>
<text text-anchor="start" x="412.5" y="-451.3" font-family="Times,serif" font-size="14.00">created_at :timestamp without time zone</text>
<text text-anchor="start" x="412.5" y="-436.3" font-family="Times,serif" font-size="14.00">updated_at :timestamp without time zone</text>
<text text-anchor="start" x="412.5" y="-421.3" font-family="Times,serif" font-size="14.00">name :character varying</text>
<text text-anchor="start" x="412.5" y="-406.3" font-family="Times,serif" font-size="14.00">provider :character varying</text>
<text text-anchor="start" x="412.5" y="-391.3" font-family="Times,serif" font-size="14.00">uid :character varying</text>
<text text-anchor="start" x="412.5" y="-376.3" font-family="Times,serif" font-size="14.00">date_of_birth :timestamp without time zone</text>
<text text-anchor="start" x="412.5" y="-361.3" font-family="Times,serif" font-size="14.00">country :character varying</text>
<text text-anchor="start" x="412.5" y="-346.3" font-family="Times,serif" font-size="14.00">biography :text</text>
<text text-anchor="start" x="412.5" y="-331.3" font-family="Times,serif" font-size="14.00">phone_number :character varying</text>
</g>
<!-- User&#45;&gt;Product -->
<g id="edge1" class="edge"><title>User&#45;&gt;Product</title>
<path fill="none" stroke="#d9a293" d="M422.335,-316.792C417.103,-309.484 411.888,-302.198 406.722,-294.982"/>
<ellipse fill="none" stroke="#d9a293" cx="424.793" cy="-320.227" rx="4.00002" ry="4.00002"/>
<polygon fill="#d9a293" stroke="#d9a293" points="406.504,-294.677 404.342,-283.927 403.594,-290.612 400.683,-286.546 400.683,-286.546 400.683,-286.546 403.594,-290.612 397.024,-289.166 406.504,-294.677 406.504,-294.677"/>
</g>
<!-- User&#45;&gt;BackProduct -->
<g id="edge2" class="edge"><title>User&#45;&gt;BackProduct</title>
<path fill="none" stroke="#ec2982" d="M561,-315.284C561,-275.894 561,-237.262 561,-206.731"/>
<ellipse fill="none" stroke="#ec2982" cx="561" cy="-319.479" rx="4" ry="4"/>
<polygon fill="#ec2982" stroke="#ec2982" points="561,-206.698 565.5,-196.698 561,-201.698 561,-196.698 561,-196.698 561,-196.698 561,-201.698 556.5,-196.699 561,-206.698 561,-206.698"/>
</g>
<!-- ReportProduct -->
<g id="node8" class="node"><title>ReportProduct</title>
<path fill="none" stroke="black" d="M713,-90.5C713,-90.5 933,-90.5 933,-90.5 939,-90.5 945,-96.5 945,-102.5 945,-102.5 945,-184.5 945,-184.5 945,-190.5 939,-196.5 933,-196.5 933,-196.5 713,-196.5 713,-196.5 707,-196.5 701,-190.5 701,-184.5 701,-184.5 701,-102.5 701,-102.5 701,-96.5 707,-90.5 713,-90.5"/>
<text text-anchor="middle" x="823" y="-181.3" font-family="Times,serif" font-size="14.00">ReportProduct</text>
<polyline fill="none" stroke="black" points="701,-173.5 945,-173.5 "/>
<text text-anchor="start" x="709" y="-158.3" font-family="Times,serif" font-size="14.00">id :integer</text>
<text text-anchor="start" x="709" y="-143.3" font-family="Times,serif" font-size="14.00">product_id :integer</text>
<text text-anchor="start" x="709" y="-128.3" font-family="Times,serif" font-size="14.00">user_id :integer</text>
<text text-anchor="start" x="709" y="-113.3" font-family="Times,serif" font-size="14.00">created_at :timestamp without time zone</text>
<text text-anchor="start" x="709" y="-98.3" font-family="Times,serif" font-size="14.00">updated_at :timestamp without time zone</text>
</g>
<!-- User&#45;&gt;ReportProduct -->
<g id="edge3" class="edge"><title>User&#45;&gt;ReportProduct</title>
<path fill="none" stroke="#6ac67f" d="M699.572,-316.922C728.756,-276.154 757.437,-236.088 779.795,-204.854"/>
<ellipse fill="none" stroke="#6ac67f" cx="697.207" cy="-320.227" rx="4.00002" ry="4.00002"/>
<polygon fill="#6ac67f" stroke="#6ac67f" points="779.813,-204.83 789.293,-199.318 782.723,-200.764 785.634,-196.698 785.634,-196.698 785.634,-196.698 782.723,-200.764 781.975,-194.079 779.813,-204.83 779.813,-204.83"/>
</g>
<!-- Category -->
<g id="node7" class="node"><title>Category</title>
<path fill="none" stroke="black" d="M1079,-466C1079,-466 1299,-466 1299,-466 1305,-466 1311,-472 1311,-478 1311,-478 1311,-545 1311,-545 1311,-551 1305,-557 1299,-557 1299,-557 1079,-557 1079,-557 1073,-557 1067,-551 1067,-545 1067,-545 1067,-478 1067,-478 1067,-472 1073,-466 1079,-466"/>
<text text-anchor="middle" x="1189" y="-541.8" font-family="Times,serif" font-size="14.00">Category</text>
<polyline fill="none" stroke="black" points="1067,-534 1311,-534 "/>
<text text-anchor="start" x="1075" y="-518.8" font-family="Times,serif" font-size="14.00">id :integer</text>
<text text-anchor="start" x="1075" y="-503.8" font-family="Times,serif" font-size="14.00">name :character varying</text>
<text text-anchor="start" x="1075" y="-488.8" font-family="Times,serif" font-size="14.00">created_at :timestamp without time zone</text>
<text text-anchor="start" x="1075" y="-473.8" font-family="Times,serif" font-size="14.00">updated_at :timestamp without time zone</text>
</g>
</g>
</svg>
