<?xml version="1.0" encoding="UTF-8" standalone="no"?>
<!DOCTYPE svg PUBLIC "-//W3C//DTD SVG 1.1//EN"
 "http://www.w3.org/Graphics/SVG/1.1/DTD/svg11.dtd">
<!-- Generated by graphviz version 2.38.0 (20140413.2041)
 -->
<!-- Title: models_diagram Pages: 1 -->
<svg width="693pt" height="158pt"
 viewBox="0.00 0.00 692.90 158.00" xmlns="http://www.w3.org/2000/svg" xmlns:xlink="http://www.w3.org/1999/xlink">
<g id="graph0" class="graph" transform="scale(1 1) rotate(0) translate(4 154)">
<title>models_diagram</title>
<polygon fill="none" stroke="none" points="-4,4 -4,-154 688.896,-154 688.896,4 -4,4"/>
<!-- _diagram_info -->
<g id="node1" class="node"><title>_diagram_info</title>
<text text-anchor="start" x="8" y="-135.6" font-family="Times,serif" font-size="13.00">Models diagram</text>
<text text-anchor="start" x="8" y="-121.6" font-family="Times,serif" font-size="13.00">Date: Feb 08 2017 &#45; 23:07</text>
<text text-anchor="start" x="8" y="-107.6" font-family="Times,serif" font-size="13.00">Migration version: 20170208173534</text>
<text text-anchor="start" x="8" y="-93.6" font-family="Times,serif" font-size="13.00">Generated by RailRoady 1.4.2</text>
<text text-anchor="start" x="8" y="-79.6" font-family="Times,serif" font-size="13.00">http://railroady.prestonlee.com</text>
</g>
<!-- ApplicationRecord -->
<g id="node2" class="node"><title>ApplicationRecord</title>
<ellipse fill="none" stroke="black" cx="309" cy="-111" rx="77.1866" ry="18"/>
<text text-anchor="middle" x="309" y="-107.3" font-family="Times,serif" font-size="14.00">ApplicationRecord</text>
</g>
<!-- Product -->
<g id="node3" class="node"><title>Product</title>
<ellipse fill="none" stroke="black" cx="320" cy="-18" rx="38.1938" ry="18"/>
<text text-anchor="middle" x="320" y="-14.3" font-family="Times,serif" font-size="14.00">Product</text>
</g>
<!-- BackProduct -->
<g id="node4" class="node"><title>BackProduct</title>
<ellipse fill="none" stroke="black" cx="432" cy="-18" rx="55.7903" ry="18"/>
<text text-anchor="middle" x="432" y="-14.3" font-family="Times,serif" font-size="14.00">BackProduct</text>
</g>
<!-- AdminUser -->
<g id="node5" class="node"><title>AdminUser</title>
<ellipse fill="none" stroke="black" cx="529" cy="-111" rx="51.9908" ry="18"/>
<text text-anchor="middle" x="529" y="-107.3" font-family="Times,serif" font-size="14.00">AdminUser</text>
</g>
<!-- User -->
<g id="node6" class="node"><title>User</title>
<ellipse fill="none" stroke="black" cx="432" cy="-111" rx="27.0966" ry="18"/>
<text text-anchor="middle" x="432" y="-107.3" font-family="Times,serif" font-size="14.00">User</text>
</g>
<!-- User&#45;&gt;Product -->
<g id="edge1" class="edge"><title>User&#45;&gt;Product</title>
<path fill="none" stroke="#0c4cf0" d="M412.813,-88.9183C407.266,-83.2109 401.067,-77.1827 395,-72 380.945,-59.9936 364.238,-47.9918 350.164,-38.4529"/>
<ellipse fill="none" stroke="#0c4cf0" cx="415.78" cy="-92.0337" rx="4.00002" ry="4.00002"/>
<polygon fill="#0c4cf0" stroke="#0c4cf0" points="350.101,-38.4113 344.289,-29.1128 345.945,-35.6326 341.788,-32.8539 341.788,-32.8539 341.788,-32.8539 345.945,-35.6326 339.287,-36.595 350.101,-38.4113 350.101,-38.4113"/>
</g>
<!-- User&#45;&gt;BackProduct -->
<g id="edge2" class="edge"><title>User&#45;&gt;BackProduct</title>
<path fill="none" stroke="#3cf7e2" d="M432,-84.7285C432,-72.7246 432,-58.3622 432,-46.1291"/>
<ellipse fill="none" stroke="#3cf7e2" cx="432" cy="-88.8836" rx="4" ry="4"/>
<polygon fill="#3cf7e2" stroke="#3cf7e2" points="432,-46.0397 436.5,-36.0396 432,-41.0397 432,-36.0397 432,-36.0397 432,-36.0397 432,-41.0397 427.5,-36.0397 432,-46.0397 432,-46.0397"/>
</g>
<!-- ReportProduct -->
<g id="node8" class="node"><title>ReportProduct</title>
<ellipse fill="none" stroke="black" cx="568" cy="-18" rx="61.99" ry="18"/>
<text text-anchor="middle" x="568" y="-14.3" font-family="Times,serif" font-size="14.00">ReportProduct</text>
</g>
<!-- User&#45;&gt;ReportProduct -->
<g id="edge3" class="edge"><title>User&#45;&gt;ReportProduct</title>
<path fill="none" stroke="#e9d95c" d="M449.914,-88.6604C455.372,-82.8586 461.624,-76.8459 468,-72 485.665,-58.5742 507.203,-46.6805 525.76,-37.5795"/>
<ellipse fill="none" stroke="#e9d95c" cx="447.022" cy="-91.846" rx="4.00002" ry="4.00002"/>
<polygon fill="#e9d95c" stroke="#e9d95c" points="525.859,-37.5322 536.821,-37.2702 530.368,-35.372 534.877,-33.2119 534.877,-33.2119 534.877,-33.2119 530.368,-35.372 532.933,-29.1535 525.859,-37.5322 525.859,-37.5322"/>
</g>
<!-- Category -->
<g id="node7" class="node"><title>Category</title>
<ellipse fill="none" stroke="black" cx="642" cy="-111" rx="42.7926" ry="18"/>
<text text-anchor="middle" x="642" y="-107.3" font-family="Times,serif" font-size="14.00">Category</text>
</g>
</g>
</svg>
